<?xml version="1.0" encoding="utf-8"?>
<!-- Generator: Adobe Illustrator 16.0.0, SVG Export Plug-In . SVG Version: 6.00 Build 0)  -->
<!DOCTYPE svg PUBLIC "-//W3C//DTD SVG 1.1//EN" "http://www.w3.org/Graphics/SVG/1.1/DTD/svg11.dtd">
<svg version="1.1" id="Слой_1" xmlns="http://www.w3.org/2000/svg" xmlns:xlink="http://www.w3.org/1999/xlink" x="0px" y="0px"
	 width="3200px" height="2000px" viewBox="0 0 3200 2000" style="enable-background:new 0 0 3200 2000;" xml:space="preserve">
<style type="text/css">
<![CDATA[
	.st0{fill:#E2915A;}
	.st1{fill:#163560;}
	.st2{fill:#E8945B;}
	.st3{fill:#B0D0FF;}
	.st4{fill:#B0D4FF;}
	.st5{fill:#B5453C;}
	.st6{fill:#B7D3F3;}
	.st7{fill:#EBF3FA;}
	.st8{fill:#EBF3FF;}
	.st9{fill:#1E3D70;}
	.st10{fill:#ED7D2B;}
	.st11{fill:#ED975D;}
	.st12{fill:#EEF6FF;}
	.st13{fill:#BAE8E3;}
	.st14{fill:#213F7A;}
	.st15{fill:#233862;}
	.st16{fill:#F2CCAA;}
	.st17{fill:#F99746;}
	.st18{fill:#5F9AA8;}
	.st19{fill:#C0D8FB;}
	.st20{fill:#95C0F4;}
	.st21{fill:#2A4E96;}
	.st22{fill:#2B478B;}
	.st23{fill:#98BAF4;}
	.st24{fill:#2E3552;}
	.st25{fill:#FFA412;}
	.st26{fill:#FFB27D;}
	.st27{fill:#FFFFFF;}
	.st28{fill:#CAE5FF;}
	.st29{fill:#A1D6CE;}
	.st30{fill:#78ACEA;}
	.st31{fill:#A9453D;}
	.st32{fill:#DFEBFD;}
	.st33{fill:#DFEDFB;}
]]>
</style>
<rect x="0" y="0" class="st27" width="3200" height="2000"/>
<g>
	<path class="st7" d="M345.3,1707.4c0.1,0.1,2521.5-0.3,2521.5-0.3c83-177.1,82.9-263.6,92.3-365.1
		c52.2-561-370.3-647.2-494.1-670.6c-379-71.6-206.5-426-1194.1-359.5c-90.5,6.1-303.9,55.3-377.5,87.2
		c-51.6,22.3-245.9,122.3-303,291.4c-18,53.4-22.3,113.6-4.2,180.5c64.3,236.6-103.3,223-225.7,335.8
		C197.1,1357.2,214.2,1603.3,345.3,1707.4z"/>
	<g>
		<g>
			<path class="st4" d="M1847.2,1707.2h0.3c2,0,3.7-1.7,3.6-3.7l-5.5-238.4l-16.2-1.9l13.8,240.3
				C1843.4,1705.6,1845.1,1707.2,1847.2,1707.2z"/>
		</g>
		<g>
			<path class="st20" d="M1941.6,1707.2h0.3c2,0,3.7-1.7,3.6-3.7l-5.5-238.4l-16.2-1.9l13.8,240.3
				C1937.8,1705.6,1939.6,1707.2,1941.6,1707.2z"/>
		</g>
		<g>
			<path class="st4" d="M1681.1,1707.2h-0.3c-2,0-3.7-1.7-3.6-3.7l5.5-238.4l16.2-1.9l-13.8,240.3
				C1684.9,1705.6,1683.2,1707.2,1681.1,1707.2z"/>
		</g>
		<path class="st4" d="M1952.4,1450.3v-163.4c0-28.7-23.3-52-52-52h-117.7c-28.7,0-52,23.3-52,52v169.6L1952.4,1450.3z"/>
		<path class="st20" d="M1709.5,1476.1h227.3c8.6,0,15.6-7,15.6-15.6v-10.2h-242.9V1476.1z"/>
		<path class="st28" d="M1682.3,1476.1h171.9c6.4,0,11.6-5.2,11.6-11.6v-2.7c0-6.4-5.2-11.6-11.6-11.6h-171.9
			c-6.4,0-11.6,5.2-11.6,11.6v2.7C1670.7,1470.9,1675.9,1476.1,1682.3,1476.1z"/>
	</g>
	<g>
		<rect x="1399.9" y="590.5" class="st20" width="678.5" height="585.7"/>
		<g>
			<rect x="1412.8" y="600.2" class="st33" width="652.4" height="564.3"/>
			<g>
				<polygon class="st27" points="1640.8,845.8 1497.9,845.8 1497.9,667.2 1522.1,645.4 1640.8,645.4 				"/>
				<polygon class="st4" points="1497.9,667.2 1521.3,667.2 1522.1,645.4 				"/>
				<rect x="1546.5" y="662.8" class="st4" width="45.8" height="2.2"/>
				<rect x="1535.7" y="669.3" class="st4" width="67.3" height="2.2"/>
				<rect x="1514.8" y="711.3" class="st4" width="111.8" height="2.8"/>
				<rect x="1514.8" y="719.8" class="st4" width="111.8" height="2.8"/>
				<rect x="1514.8" y="728.3" class="st4" width="111.8" height="2.8"/>
				<rect x="1514.8" y="736.8" class="st4" width="111.8" height="2.8"/>
				<rect x="1514.8" y="827.9" class="st4" width="111.8" height="2.8"/>
			</g>
			<g>
				<polygon class="st27" points="1805.9,1093.4 1663,1093.4 1663,914.9 1687.2,893.1 1805.9,893.1 				"/>
				<polygon class="st4" points="1663,914.9 1686.4,914.9 1687.2,893.1 				"/>
				<rect x="1711.5" y="910.4" class="st4" width="45.8" height="2.2"/>
				<rect x="1700.8" y="917" class="st4" width="67.3" height="2.2"/>
				<rect x="1679.9" y="959" class="st4" width="111.8" height="2.8"/>
				<rect x="1679.9" y="967.5" class="st4" width="111.8" height="2.8"/>
				<rect x="1679.9" y="976" class="st4" width="111.8" height="2.8"/>
				<rect x="1679.9" y="984.5" class="st4" width="111.8" height="2.8"/>
				<rect x="1679.9" y="1010.7" class="st4" width="111.8" height="2.8"/>
				<rect x="1679.9" y="1019.2" class="st4" width="111.8" height="2.8"/>
				<rect x="1679.9" y="1029.1" class="st4" width="111.8" height="2.8"/>
			</g>
			<g>
				<rect x="1807.6" y="645.4" class="st4" width="78.9" height="69.6"/>
				<circle class="st25" cx="1847.1" cy="653.7" r="3.5"/>
			</g>
			<g>
				
					<rect x="1807.6" y="739.5" transform="matrix(-0.9976 6.963993e-002 -6.963993e-002 -0.9976 3743.6763 1418.0957)" class="st27" width="78.9" height="69.6"/>
				<circle class="st4" cx="1845.6" cy="752.2" r="3.5"/>
			</g>
			<g>
				
					<rect x="1545.3" y="995.9" transform="matrix(-0.9976 6.963993e-002 -6.963993e-002 -0.9976 3237.5107 1948.5432)" class="st27" width="78.9" height="69.6"/>
				<circle class="st4" cx="1583.2" cy="1008.6" r="3.5"/>
			</g>
			<g>
				
					<rect x="1444.1" y="1043.6" transform="matrix(-0.9999 1.025507e-002 -1.025507e-002 -0.9999 2978.0718 2141.5127)" class="st27" width="78.9" height="69.6"/>
				<circle class="st4" cx="1483.3" cy="1056.2" r="3.5"/>
			</g>
			<g>
				
					<rect x="1919.1" y="785.3" transform="matrix(-0.9844 -0.1759 0.1759 -0.9844 3742.4019 1971.944)" class="st12" width="78.9" height="69.6"/>
				<circle class="st30" cx="1963.1" cy="795.1" r="3"/>
			</g>
			<g>
				
					<rect x="1686.1" y="739.5" transform="matrix(-0.9942 0.1076 -0.1076 -0.9942 3524.478 1358.4441)" class="st12" width="78.9" height="69.6"/>
				<circle class="st30" cx="1722.9" cy="749.1" r="3"/>
			</g>
			<g>
				
					<rect x="1485.4" y="907.4" transform="matrix(-0.978 0.2085 -0.2085 -0.978 3212.6357 1545.7754)" class="st13" width="78.9" height="69.6"/>
				<circle class="st25" cx="1519.5" cy="917.4" r="3"/>
			</g>
			<g>
				<g>
					<polygon class="st27" points="1763.2,715 1688,715 1688,664.5 1708.8,645.4 1763.2,645.4 					"/>
					<polygon class="st4" points="1687.6,664.5 1708.1,664.5 1708.8,645.4 					"/>
				</g>
				<circle class="st4" cx="1728.3" cy="651.8" r="2.5"/>
			</g>
			<g>
				<g>
					<polygon class="st27" points="1982.7,1128.2 1907.6,1128.2 1907.6,1077.7 1928.4,1058.6 1982.7,1058.6 					"/>
					<polygon class="st4" points="1907.2,1077.7 1927.7,1077.7 1928.4,1058.6 					"/>
				</g>
				<circle class="st4" cx="1947.9" cy="1065.1" r="2.5"/>
			</g>
			<g>
				<g>
					<polygon class="st27" points="2017,1028 1941.8,1028 1941.8,977.6 1962.6,958.4 2017,958.4 					"/>
					<polygon class="st4" points="1941.4,977.6 1962,977.6 1962.6,958.4 					"/>
				</g>
				<circle class="st4" cx="1982.1" cy="964.9" r="2.5"/>
			</g>
			<g>
				<g>
					<polygon class="st13" points="1917.8,1028 1842.7,1028 1842.7,977.6 1863.5,958.4 1917.8,958.4 					"/>
					<polygon class="st29" points="1842.3,977.6 1862.8,977.6 1863.5,958.4 					"/>
				</g>
				<circle class="st17" cx="1883" cy="964.9" r="2.5"/>
			</g>
			<g>
				<g>
					<polygon class="st13" points="2038.2,697.6 1963,697.6 1963,647.1 1983.8,628 2038.2,628 					"/>
					<polygon class="st29" points="1962.6,647.1 1983.2,647.1 1983.8,628 					"/>
				</g>
				<circle class="st17" cx="2003.4" cy="634.4" r="2.5"/>
			</g>
		</g>
	</g>
	<g>
		<path class="st19" d="M1295.2,576.3h-142.9c-6.6,0-11.9-5.4-11.9-11.9V426.4c0-6.6,5.4-11.9,11.9-11.9h142.9
			c6.6,0,11.9,5.4,11.9,11.9v137.9C1307.1,570.9,1301.7,576.3,1295.2,576.3z"/>
		<path class="st32" d="M1289,569.3h-130.5c-6,0-10.9-4.9-10.9-10.9v-126c0-6,4.9-10.9,10.9-10.9H1289c6,0,10.9,4.9,10.9,10.9v126
			C1299.9,564.4,1295,569.3,1289,569.3z"/>
		<g>
			<g>
				<circle class="st6" cx="1223.7" cy="436.3" r="3.5"/>
				<circle class="st6" cx="1251.1" cy="442.8" r="3.5"/>
				<circle class="st6" cx="1273.9" cy="463" r="3.5"/>
				<circle class="st6" cx="1283.8" cy="493" r="3.5"/>
				<circle class="st6" cx="1275.3" cy="526" r="3.5"/>
				<circle class="st6" cx="1253.7" cy="547.8" r="3.5"/>
				<circle class="st6" cx="1223.7" cy="556.5" r="3.5"/>
			</g>
			<g>
				<circle class="st6" cx="1196.1" cy="442.8" r="3.5"/>
				<circle class="st6" cx="1173.4" cy="463" r="3.5"/>
				<circle class="st6" cx="1163.5" cy="493" r="3.5"/>
				<circle class="st6" cx="1171.9" cy="526" r="3.5"/>
				<circle class="st6" cx="1193.6" cy="547.8" r="3.5"/>
			</g>
		</g>
		<g>
			<circle class="st6" cx="1226.2" cy="493" r="3.5"/>
			<g>
				<rect x="1225.7" y="449.8" class="st6" width="0.9" height="43.2"/>
			</g>
			<g>
				
					<rect x="1235.8" y="469.4" transform="matrix(0.6176 0.7865 -0.7865 0.6176 853.7467 -788.0308)" class="st6" width="2.8" height="29.1"/>
			</g>
		</g>
	</g>
	<g>
		<g>
			<path class="st26" d="M2175,1698.7c-0.7,9.3-13.8,9.4-28.6,7.7c-14.9-1.7-10.9,2-31.7,2.3c-20.8,0.3-28-6.6-29-9.6
				c-0.9-2.6,9.1-4.9,19.8-7.5c1.3-0.3,2.7-0.7,4.1-1c12.1-3.1,20.1-12.1,30.4-20c9.8-7.5,22.4-34.6,22.4-34.6l28.4-1.3
				c0,0-12,24.3-16.5,34.7c-2.6,6.2-1.5,13.7-0.4,19.5C2174.6,1692.2,2175.2,1695.4,2175,1698.7z"/>
			<path class="st15" d="M2146.4,1706.3c-14.9-1.7-10.9,2-31.7,2.3c-20.8,0.3-28-6.6-29-9.6c-0.9-2.6,9.1-4.9,19.8-7.5l0.1,0.2
				c0,0,13.4,7.2,30.5,5.5c14-1.4,28.2-7.2,37.9-8.3c0.6,3.2,1.2,6.4,1,9.7C2174.3,1708,2161.2,1708.1,2146.4,1706.3z"/>
		</g>
		<g>
			<path class="st26" d="M2371.3,1700.6c-0.7,9.3-13.8,9.4-28.6,7.7c-14.9-1.7-10.9,2-31.7,2.4c-20.8,0.3-28-6.6-29-9.5
				c-0.9-2.6,9.1-4.9,19.8-7.5c1.3-0.3,2.7-0.7,4.1-1c12.1-3.1,20.1-12.1,30.4-20.1c9.8-7.5,0-51.9,0-51.9l31.3-3
				c0,0-1.5,37.4-1.5,54.3c0,6.7,3.1,13.1,4.2,18.9C2370.9,1694.1,2371.5,1697.3,2371.3,1700.6z"/>
			<path class="st15" d="M2342.7,1708.3c-14.9-1.7-10.9,2-31.7,2.4c-20.8,0.3-28-6.6-29-9.5c-0.9-2.6,9.1-4.9,19.8-7.5l0.1,0.2
				c0,0,13.4,7.2,30.5,5.4c14-1.4,28.2-7.3,37.8-8.3c0.6,3.2,1.2,6.4,1,9.7C2370.6,1709.9,2357.5,1710,2342.7,1708.3z"/>
		</g>
		<path class="st31" d="M2280.1,933.9c-5.4-22.1,2.4-32.4,9.5-37.9c3.3-8.1,7.1-14,11-16.2c7.1-4,15.6-4.5,21.6-4.1
			c-1.5-1.6-4.5-2.2-4.5-2.2c3.7-0.5,11.9,3.1,11.9,3.1c51.4-19.8,59.4,55.8,58.4,73.4c-1.1,17.6-0.9,38.3,25.8,52.1
			c51,26.4-16.9,126-16.9,126c1.3-14.2-64.2-89.1-98.4-111.6c-8.3-12.3-11.3-33.9-11.5-35.6c1.4,17.2,4.4,26.8,7,32.2
			C2278.3,998.7,2275.9,964.3,2280.1,933.9z"/>
		<path class="st26" d="M2300.4,1017.6c-0.2,0.1,16.5,8.7,29,5.3c11.8-3.2,19.5-18.5,19.3-18.6c-5-1-6.4-7.9-6.3-37.4l-2.3,0.4
			l-38,7.5c0,0,0.9,12,0.9,23.2C2303.1,1007.6,2302.5,1016.6,2300.4,1017.6z"/>
		<path class="st11" d="M2302.2,974.9c0,0,0.9,12,0.9,23.2c21.3-0.6,32.5-20,37.1-30.7L2302.2,974.9z"/>
		<path class="st21" d="M2147.6,1651.1c-1.9,5.8,2.3,11.9,8.4,12.1l14.8,0.7l15.7,0.5c3.9,0.1,7.7-1.6,10.2-4.6
			c12.5-15.4,51.1-66.6,74.5-141.1c0.7-2.1,1.4-4.2,2.1-6.3c15.5-45.1,47.5-101.6,64.4-152.8c2.7-8.2,5.1-15.8,7.3-23.1
			c0.7-2.3,1.4-4.6,2-6.9c12.4-43.2,16-71.6,19.4-101.9l-121.9,1C2244.5,1228.6,2218.8,1428.1,2147.6,1651.1z"/>
		<path class="st27" d="M2261.6,1158.6c0.3,58-8.5,82.9-8.5,82.9s52.2,26.5,114.2,7c0.7-0.2,51.4-11.8,51.4-11.8
			c-1-2.3-10.3-41.4-11.3-43.6c-13.1-28.1-23-40.5-24.6-49.1c-2.9-16.1-2.9-32.8-1.5-48.6c3.8-41.7,15-76.3,15-76.3
			c-16.9-3.8-32.7-10.6-50.3-17.2c-4,5-16.4,10.3-27.1,10.1c-12.4-0.3-16.4-5.6-15.7-11.3c-13.2,7.3-23.7,14.2-23.7,14.2
			c-11.2,19.4-33.9,38.3-35.5,68.1C2243.5,1090.3,2261.5,1157,2261.6,1158.6z"/>
		<path class="st18" d="M2366.4,1165c5.3,7.5,15.5,53.4,41,59.1c-13.1-32.7-23-47-24.6-57c-2.9-18.8-2.9-38.2-1.5-56.5
			c-8.5-14.9-14.9-25.1-14.9-25.1c-0.7-2.4-13.5-42.2-17.6-6.6C2344.6,1114.5,2360.4,1156.6,2366.4,1165z"/>
		<path class="st26" d="M2295.1,985.6c0,0,50.3,0.8,50.3-30.5c0-31.3,6.5-52.3-25.6-54.2c-32.1-1.9-38.4,10.1-40.9,20.5
			C2276.4,931.9,2282,984.6,2295.1,985.6z"/>
		<path class="st31" d="M2296.9,900.2c0,0,13.8,36.8,34.9,42.2c21.1,5.4,30.3-0.2,30.3-0.2s-16.2-12.9-19.6-35.4
			C2342.6,906.8,2307.3,882.7,2296.9,900.2z"/>
		<path class="st31" d="M2300.4,903.1c0,0-10.3,8.2-12.8,16.2c-2.5,8-3.6,24.4-8.4,23.8c0,0-10.4-25,1.3-39.1
			C2292.8,889.1,2300.4,903.1,2300.4,903.1z"/>
		<polygon class="st26" points="2216,1198.8 2192.2,1271.3 2205.8,1276.7 2245,1212.7 		"/>
		<path class="st17" d="M2280,1010.6c0,0-28,11.1-36.1,28.4s-20.4,133.5-25.3,145.5s-8.6,21.4-8.6,21.4s14.1,11.9,28.3,12.8
			S2280,1010.6,2280,1010.6z"/>
		<path class="st17" d="M2303.1,1000.6c0,0-29.1,71.9-30,86.4c-0.9,14.5-3.4,237.9-3.4,237.9s1.7,10.3-18,6s-24.8-8.6-24.8-8.6
			s18.8-137.8,13.7-185.7c-5.1-47.9,39.4-126.1,39.4-126.1L2303.1,1000.6z"/>
		<path class="st9" d="M2170.9,1663.9l17,0.5c3,0.1,6-1.2,7.9-3.6c11.5-13.9,51.4-65.8,75.4-142.2c0.7-2.1,1.4-4.2,2.1-6.3
			c15.5-45.1,47.5-101.6,64.4-152.8c2.7-8.2,5.1-15.8,7.3-23.1c0.7-2.3,1.4-4.6,2-6.9l-18-13.6c0,0-53.9,87.3-70.6,169.4
			C2244,1556.7,2186,1642.6,2170.9,1663.9z"/>
		<path class="st21" d="M2327.2,1493c-0.3,37.8,1.5,122,6.1,163.2c0.4,3.8,3.6,6.6,7.4,6.6h12.7c5.4,0,9.4,0,12-0.1
			c2.3,0,4.3-1.7,4.7-4c12.6-64.4,21.7-117.8,28.3-164c5.5-38.7,10.5-71.8,14.3-100.4c3.8-28.7,6.5-52.8,7.4-73.1
			c0.1-3.2,0.3-6.3,0.3-9.3c0.1-3,0.1-6,0.1-8.9l-105.3-10.3C2316.6,1362.8,2327.4,1469.8,2327.2,1493z"/>
		<path class="st9" d="M2353.4,1662.8c4.8,0,8.5,0,11.2-0.1c2.8,0,5.2-2,5.7-4.8c12.6-64,21.6-117.2,28.2-163.2
			c5.5-38.7,10.5-71.8,14.3-100.4c3.8-28.7,6.5-52.8,7.4-73.1l-38.6,22.7c0,0,24.7,8.7,15.3,74.6
			C2387.4,1484.5,2366.5,1653.5,2353.4,1662.8z"/>
		<path class="st17" d="M2348.4,1320.6c0,0,7.4,26.8,33.1,23.4c25.7-3.4,62.2-18.8,62.2-18.8s-11-34.7-24.6-80.2
			c-16.5-55.1-37-126.2-46.6-171c-2.7-12.6-4.6-23.1-5.2-30.6l-21.3-41.3c0,0-31.8,71.3-33.5,89.2S2348.4,1320.6,2348.4,1320.6z"/>
		<path class="st26" d="M2374.1,1088.6l-28.1-86.6c0.1,0,35.5,10.5,53.3,19.5c0,0,11.1,14.4,18,47.5c0,0,7.3,79.5-9,108.6
			c0,0-51.3,10.3-133.5-18v-18.8c0,0,89.8,4.7,108.2,6.8L2374.1,1088.6z"/>
		<path class="st10" d="M2349.6,1128.9c1.1,29.1,8,85.6,69,115.8c0.2,0.1,0.3,0.2,0.5,0.2c-16.5-55.1-37-126.2-46.6-171
			C2361.3,1090.7,2349,1112.9,2349.6,1128.9z"/>
		<path class="st17" d="M2346,1002.1c0,0,52.1,3.7,64.7,31.6c12.5,28,16.5,120.9,0.6,148.3c0,0-22,6.3-60.9-1
			c-0.5-0.1-1-0.2-1.4-0.3c0,0-12.4-30.4-1.3-36.4c0,0,32.8,1.7,29.4-9.1C2373.5,1124.4,2346,1002.1,2346,1002.1z"/>
		<g>
			<path class="st31" d="M2215.3,1152.6l1.5,4.9l85.5-26.6c0,0,1.1-1.3,0.6-3c-0.6-1.9-2.1-1.9-2.1-1.9L2215.3,1152.6z"/>
			<polygon class="st31" points="2209.2,1157.2 2215.3,1152.6 2216.9,1157.5 			"/>
		</g>
		<path class="st26" d="M2195.6,1269.3c0,0-21.7,12-24.5,21.1c-2.9,9.1-0.9,28.3,2.5,28c3.4-0.3,8.6-20.5,11.4-22s6.8-5.7,6.8-2.6
			s-2.9,8.8-1.4,9.7s6-8,9.1-9.7c3.1-1.7,4.5-15.8,7.5-19.6C2210.1,1270.4,2195.6,1269.3,2195.6,1269.3z"/>
		<path class="st26" d="M2274.9,1140.9c0,0-19.4-11.9-27.5-10.1c-8.1,1.8-28.9,16.9-18.9,20.1s18.1-0.2,21.9,2.2s6.7,6.7,24.5,6.6
			C2292.7,1159.7,2274.9,1140.9,2274.9,1140.9z"/>
	</g>
	<g>
		<path class="st1" d="M749.5,1012.6c-3.3-6.3,70.9-28.9,72.1,33c0,0,139-3.4,72.6-80.9c-23-26.8-20.6-49-19.9-69.6
			c0.7-20.6-14.3-80.6-65.8-74.6c0,0-13.5-5.5-30.3,3.2C740,843.6,654.4,1035.4,749.5,1012.6z"/>
		<path class="st26" d="M976.7,1081.8c0,0,9-13.8,16.3-14c7.3-0.3,20.8-4.1,19.7-1.4s-9.5,3-10.3,4.6s12.4,4.1,16.2,4.3
			c3.8,0.3,12.7,0,12.4,1.9c-0.3,1.9-16.1,9.7-27.2,8.6c-11.1-1.1-24.9,3.2-24.9,3.2L976.7,1081.8z"/>
		<path class="st3" d="M845.8,1086.2c0,0,4.9,9.7,13.8,20.9c10.8,13.5,27.3,29,48.1,32.1c9.9,1.5,19.7-0.7,28.6-4.6c0,0,0,0,0,0
			c25.3-11.2,44.3-37,44.3-37c4.5-12.2-2.8-20.4-2.8-20.4s-51,11.5-55.9,9c-4.9-2.4-33.2-84.1-40-94.4
			c-6.8-10.3-29.8-15.6-29.8-15.6L845.8,1086.2z"/>
		<path class="st23" d="M859.7,1107.2c10.8,13.5,27.3,29,48.1,32.1c9.9,1.5,19.7-0.7,28.6-4.6c-1,0.1-26.2,3.2-36.3-14.8
			c-10.3-18.4-21.4-47.5-36.6-37.8C856.9,1086.2,857.2,1096.7,859.7,1107.2z"/>
		<path class="st15" d="M655.4,1637.1c0,0-15.6,14.2-12.5,24.3c3,10.1,17.1,16.8,19,29.2c1.9,12.3,9.5,19.1,16.3,19.1s32.6,0,32.6,0
			s5-8.7-7.1-11.3c-12.2-2.6-16.7-17.1-16-30.6c0.8-13.5-1.1-31.4-1.1-31.4l-25.8-6L655.4,1637.1z"/>
		<path class="st15" d="M787.3,1643.2c0,0-5.6,60.2,1.2,63.6l87.5-0.2c0,0,0-10.1-14.1-12.3s-38.7-10.5-42.9-28.8
			C814.8,1647.1,787.3,1643.2,787.3,1643.2z"/>
		<path class="st26" d="M724.9,1211.2c18-40.4,29-52,26.9-64.5c-1.6-9.3,4.8-173.9,4.8-173.9c2.1-0.7,6.4-1.3,8.8-1.8
			c7.4-1.6,13.5-6.8,16-14c3.1-8.6,5.5-21.3,5.4-37.1l2.3,0.5l38.8,7.7c0,0-0.9,12.2-0.9,23.7c0,0.1,0,0.2,0,0.3
			c0,10,6.5,18.8,16.1,21.6c4.9,1.4,9.2,2.6,9.2,2.6s14.2,40.7,17,82.4c2.7,41.8-25.9,59.9,0.2,143.4
			C896.1,1287.3,715,1233.6,724.9,1211.2z"/>
		<path class="st2" d="M827.9,928.1c0,0-0.9,12.2-0.9,23.7c-21.7-0.6-33.2-20.4-37.9-31.4L827.9,928.1z"/>
		<path class="st26" d="M835.2,939c0,0-51.3,0.8-51.4-31.1c0-32-6.7-53.4,26.1-55.3c32.8-1.9,39.2,10.3,41.8,21
			S848.5,937.9,835.2,939z"/>
		<path class="st1" d="M833.3,851.7c0,0-14.1,37.5-35.6,43.1s-30.9-0.2-30.9-0.2s16.5-13.1,20-36.1
			C786.7,858.5,822.7,833.9,833.3,851.7z"/>
		<path class="st1" d="M829.8,854.8c0,0,10.4,3.9,14.7,11.5c4.2,7.4,7.8,17.3,6.9,29.4c0,0,10.6-25.5-1.3-39.9
			C837.5,840.4,829.8,854.8,829.8,854.8z"/>
		<path class="st7" d="M824,919.1c0,0,3.5,4.7,10.6,4.3c5.7-0.3,7.9-5.2,7.9-5.2S832,915.7,824,919.1z"/>
		<path class="st3" d="M719.9,1045.6c0,0-1.3,18.4,0,40.4c0.9,14.6,15.7,34.2,17.8,39.1c5.3,12.2,11.2,14.1,11.2,14.1l45.9,11.3
			l16.2,4l50.9-15.2c0,0,23.2-64.8,13.9-101.2c-9.3-36.5-23.5-61.8-23.5-61.8s-41.6,40.7-95.7-3.5L719.9,1045.6z"/>
		<path class="st16" d="M733.4,1092c0.9,14.6,2.2,28.2,4.3,33.1c5.3,12.2,11.2,14.1,11.2,14.1l45.9,11.3l20-5.9
			c0,0-66.6-10.1-59.2-67.4L733.4,1092z"/>
		<path class="st10" d="M858.7,1149.1c0,0,25.2,78.5,26.8,105.3s-48.2,379.8-50.2,392.1c-1.9,11.6-16.3,19-16.3,19
			s-6.6,3.9-16.1,1.2c-13.1-3.7-17.3-8.1-17.3-8.1s-19.6-251.8-7.5-341.7c12.2-89.9,12.3-167.7,12.3-167.7H858.7z"/>
		<path class="st17" d="M751.8,1146.7c0,0-38.5,51.6-42.1,86.5c-3.6,34.9-5.6,157.5-13.3,191.5c-7.6,34-35.7,99.5-35.7,205.6
			c0,0,2.9,6.1,11.9,9.3c2.9,1,6.7,2,10.5,2.9c7.4,1.7,15.1-1.9,18.4-8.8c19-38.2,79.5-161.5,82.6-187.1
			c2.2-18.1,21.3-138,62.9-208.3c10-16.9-6.1-84-6.1-84L751.8,1146.7z"/>
		<path class="st27" d="M825.1,920c0,0,0.9,3.8,10.3,3.2c0,0,7.9-0.5,7.6-4.6C843,918.5,835.4,915.6,825.1,920z"/>
		<path class="st15" d="M862.7,1137c0,0-10.1,8-30.2,8.4c-24,0.5-83.6-6.1-83.6-6.1s-2.6,7.4-2.5,15.2c0,0,72.7,18.3,114.9,2.7
			C861.2,1157.1,866.7,1146.9,862.7,1137z"/>
		<g>
			<path class="st27" d="M827.3,1153.7c0-6.8,4.9-12.4,11-12.4c6,0,11,5.6,11,12.4s-4.9,12.4-11,12.4
				C832.2,1166.1,827.3,1160.5,827.3,1153.7z M830.9,1153.7c0,4.8,3.3,8.8,7.3,8.8c4,0,7.3-3.9,7.3-8.8c0-4.8-3.3-8.8-7.3-8.8
				C834.2,1144.9,830.9,1148.8,830.9,1153.7z"/>
		</g>
		
			<rect x="702.9" y="1065" transform="matrix(-0.7542 -0.6567 0.6567 -0.7542 575.8365 2480.7825)" class="st5" width="98.8" height="135.2"/>
		<path class="st26" d="M765.7,1151.4c0,0,27.3,3.2,27.2,9.7c-0.1,6.5-6.8,19.8-10.2,20.4c-3.4,0.6-22.2-18-22.2-18L765.7,1151.4z"
			/>
		<path class="st3" d="M756.6,972.8c0,0-36.4,2.6-50.4,36.5c-14,34-40.5,91-40.5,100.6c0,9.6,14.8,39.2,94.3,56.2
			c0,0,8.2-8.7,7.7-15.5c0,0-49.6-42.6-49.5-47.6c0.3-9.4,8.1-21.9,51.7-65.5C781.8,1025.6,756.6,972.8,756.6,972.8z"/>
	</g>
	<g>
		<g>
			<g>
				<path class="st4" d="M1159.3,1707.8h-0.3c-2,0-3.7-1.7-3.6-3.7l5.5-238.4l16.2-1.9l-13.8,240.3
					C1163.1,1706.2,1161.3,1707.8,1159.3,1707.8z"/>
			</g>
			<g>
				<path class="st20" d="M1064.8,1707.8h-0.3c-2,0-3.7-1.7-3.6-3.7l5.5-238.4l16.2-1.9l-13.8,240.3
					C1068.6,1706.2,1066.9,1707.8,1064.8,1707.8z"/>
			</g>
			<g>
				<path class="st4" d="M1325.4,1707.8h0.3c2,0,3.7-1.7,3.6-3.7l-5.5-238.4l-16.2-1.9l13.8,240.3
					C1321.6,1706.2,1323.3,1707.8,1325.4,1707.8z"/>
			</g>
			<path class="st4" d="M1054.1,1450.9v-163.4c0-28.7,23.3-52,52-52h117.7c28.7,0,52,23.3,52,52v169.6L1054.1,1450.9z"/>
			<path class="st20" d="M1297,1476.7h-227.3c-8.6,0-15.6-7-15.6-15.6v-10.2H1297V1476.7z"/>
			<path class="st4" d="M1324.2,1476.7h-171.9c-6.4,0-11.6-5.2-11.6-11.6v-2.7c0-6.4,5.2-11.6,11.6-11.6h171.9
				c6.4,0,11.6,5.2,11.6,11.6v2.7C1335.8,1471.6,1330.6,1476.7,1324.2,1476.7z"/>
		</g>
		<g>
			<path class="st15" d="M1317.6,1410.2c-16.9,29.3-38.1,40.7-38.1,40.7h-88.2C1191.3,1450.9,1330.4,1387.8,1317.6,1410.2z"/>
			<g>
				<path class="st26" d="M1249.8,1637.3c-2.3,2.6-2.6,5.6-1.5,8.7c0,0,0,0,0,0c2.1,5.8,9.1,12.3,17.1,18.8c1,0.8,2,1.6,2.7,2.3
					c0.2,0.2,0.4,0.4,0.6,0.6c0.2,0.1,0.3,0.3,0.5,0.4c7.5,6.9,4.7,8.5,18.2,22.6c15.4,16.1,26,16.3,29.1,14.9
					c2.6-1.2-2.6-9.8-8.4-19.3c-0.3-0.5-0.6-0.9-0.8-1.4c-0.8-1.3-1.5-2.6-2.3-3.8c-6.7-11.5-5-16.9-3.4-34.1
					c1.3-13.9,21.7-77.8,21.7-77.8l-29.6-5.1c0,0-8.9,50.9-18.7,58.7c-5.2,4.2-11.1,4.2-16.2,7.3c-0.4,0.2-0.7,0.4-1,0.7
					C1255,1632.7,1252.1,1634.7,1249.8,1637.3z"/>
				<path class="st15" d="M1249.8,1637.3c-2.3,2.6-2.6,5.6-1.5,8.7c0,0,0,0,0,0c2.6,5.8,9.4,12.3,17.2,18.7c1,0.8,1.9,1.6,2.7,2.4
					c0.2,0.2,0.4,0.4,0.6,0.6c0.2,0.1,0.3,0.3,0.5,0.4c7.5,6.9,4.7,8.5,18.2,22.6c15.4,16.1,26,16.3,29.1,14.9
					c2.6-1.2-2.6-9.8-8.4-19.3c-3-1.1-17-6.8-27.5-20.3c-9.3-11.9-15.5-27.1-21.8-35.9c-0.4,0.2-0.7,0.4-1,0.7
					C1255,1632.7,1252.1,1634.7,1249.8,1637.3z"/>
				<path class="st26" d="M1488.2,1618.8c1.8,9.1,14.8,7.6,29.4,4.1c14.5-3.6,11.1,0.7,31.8-1.6c20.7-2.3,26.9-10,27.6-13.1
					c0.6-2.7-9.7-3.7-20.6-5c-1.4-0.2-2.8-0.3-4.1-0.5c-12.4-1.6-21.4-9.5-32.7-16.1c-10.6-6.2-26.5-31.5-26.5-31.5l-28.4,2.2
					c0,0,14.9,22.6,20.6,32.4c3.4,5.8,3.2,13.4,2.8,19.3C1487.7,1612.3,1487.5,1615.6,1488.2,1618.8z"/>
				<path class="st15" d="M1517.5,1622.9c14.5-3.6,11.1,0.7,31.8-1.6c20.7-2.3,26.9-10,27.6-13.1c0.6-2.7-9.7-3.7-20.6-5l-0.1,0.2
					c0,0-12.4,8.8-29.6,9.2c-14,0.3-28.9-3.7-38.6-3.5c-0.2,3.2-0.4,6.5,0.2,9.7C1490,1628,1503,1626.4,1517.5,1622.9z"/>
				<path class="st15" d="M1379.5,1437.5l-26.5,71.4l-34.6,93.2c0,0-9.4,0.9-18.4-1.7c-8.3-2.4-17.8-8.7-17.8-8.7
					s9.6-100,27.5-157.5c4.6-14.7,9.7-26.7,15.4-33.4C1352.9,1368,1379.5,1437.5,1379.5,1437.5z"/>
				<path class="st22" d="M1352.5,1324.1c-17.4-5.6-66.9,1.6-116.7,11.3l-10.4-17.2l-107.5-8.4c0,0-35.5,78.7-16.1,128.8
					c2.9,7.4,8.5,12.1,18.2,12.2c0,0,1.6,0,1.6,0c0,0,64,0,84.8,0c53.5,0,113.1-36.8,120.9-38.3c12.6-2.5,17.7,22.7,30.3,49.3
					c12.6,26.5,118.8,117.5,118.8,117.5s16.3,0.2,23.1-2.4c7.2-2.7,9.9-6.2,9.9-6.2S1391.7,1336.8,1352.5,1324.1z"/>
				<path class="st15" d="M1221.2,1005.3c-13.8-7.2-34.7-8.2-38.1-8.7c-40.7-5.5-65.3,53.7-66.7,71.7c-2.7,33.1-20.1,38.1-44.8,58.8
					c-49.4,41.5-34.9,89.8-7.9,107.7c16.2,10.8,44.7,0,44.7,0c0.4,0.3,78.1-43.4,116.3-64.5
					C1282.2,1162.1,1256.3,1023.7,1221.2,1005.3z"/>
				<path class="st26" d="M1192.7,1152.3c0.2,0.1-18.8,6.6-31.5,1c-12-5.3-21-25-20.8-25c5.4-0.3,11.4-5,16-36.2l2.3,0.8l38.9,14
					c0,0-2.8,12.5-4.6,24.4C1191.4,1141.3,1190.6,1150.9,1192.7,1152.3z"/>
				<path class="st11" d="M1197.6,1107c0,0-2.8,12.5-4.6,24.4c-22.4-4-31.1-26.3-34.3-38.4L1197.6,1107z"/>
				<path class="st26" d="M1203.4,1119.4c0,0-53.3-7.2-48.3-40.3c5-33.1,1.4-56.3,35.7-53.2s38.9,16.8,40,28.2
					C1231.7,1065.6,1217.3,1120.4,1203.4,1119.4z"/>
				<path class="st15" d="M1228.7,1036c0,0-34.1,29.4-57.3,31.8c-23.2,2.4-32-5.1-32-5.1s13.7-11.4,21.9-29.7
					c2.4-5.4,7.5-9.1,13.4-9.6C1191.4,1022,1222.8,1021.3,1228.7,1036z"/>
				<path class="st15" d="M1207.4,1033.4c0,0,11.4,11,15,19.2c3.5,7.9,4.5,26.8,1.7,34.3c0,0,17.8-34.6,7.7-51.4
					C1221.2,1017.7,1207.4,1033.4,1207.4,1033.4z"/>
				<path class="st27" d="M1237.5,1230.8c-1.6,107.8-0.4,85.3-12.2,95.5c-2.8,2.5-10.8,3.9-21.3,4.6c-33.1,2.2-91.2-3.3-93.4-9.4
					c-7.6-21.1-2.2-27.7-8.6-60.1c-0.7-3.4-1.5-7.2-2.4-11.2c-5.3-22.2-10.5-29.8,8.4-65.5c17.1-32.4,34.8-58.6,36.4-57.7
					c45,26.7,48.7,4.3,48.7,4.3S1238.3,1178.2,1237.5,1230.8z"/>
				<path class="st22" d="M1353,1508.8l-34.6,93.2c0,0-9.4,0.9-18.4-1.7c-8.3-2.4-17.8-8.7-17.8-8.7s9.6-100,27.5-157.5L1353,1508.8
					z"/>
				<path class="st27" d="M1192.9,1131.3c0,0,46.3,7.9,51.8,27.8c5.4,20,37.5,137.2,37.5,137.2s-23.6,4.2-34.4-6.6
					c-10.9-10.9-37.9-101-37.9-101L1192.9,1131.3z"/>
				<path class="st8" d="M1204,1330.9c-33.1,2.2-91.2-3.3-93.4-9.4c-7.6-21.1-2.2-27.7-8.6-60.1l15.9-44.9c0,0-2.6,50,12.1,63.2
					c14.7,13.2,60.4,25.4,67.5,36.4C1201,1321.4,1203.3,1326.7,1204,1330.9z"/>
				<path class="st26" d="M1166.1,1309.9c0,0,32.6-7.3,37.9-4.4c5.3,2.9,18.1,13.4,19.7,17.1c1.6,3.7-11.7-2.8-16.1-3.9
					c-2.8-0.8-10.2,1.8-13.9,3c-15.4,5.1-24.8,2.5-24.8,2.5L1166.1,1309.9z"/>
				<path class="st27" d="M1144.2,1127.1c0,0-43.8,2.7-59,23.8c-21.3,29.8-63.7,156.6-39.4,173.6c27.3,19.1,124.4,5,124.4,5
					s3.2-15.1-1.3-22.4c-4.5-7.3-77.5-19.1-80.9-22.5s42.1-65.7,42.1-75.8C1130.2,1198.6,1144.2,1127.1,1144.2,1127.1z"/>
				<path class="st26" d="M1205.5,1314.6c0,0,6.8,8.8,9.1,9.9c2.2,1.1,3.7,0.8,3.7,0.8l-4.6-8.3L1205.5,1314.6z"/>
				<path class="st26" d="M1204,1305.5l19.9,9.6c0,0-0.8,1.4-3.3,1.3c-2.4-0.1-8.6-2.4-8.6-2.4L1204,1305.5z"/>
			</g>
			<g>
				<g>
					<polygon class="st17" points="1214.6,1338 1371.8,1338 1419.1,1220.4 1262.1,1220.4 					"/>
					<polygon class="st10" points="1373.6,1333.4 1166.1,1333.4 1166.1,1338 1371.8,1338 					"/>
				</g>
				<path class="st27" d="M1332.1,1279.2c1.2-4.1-1.2-7.5-5.3-7.5c-4.1,0-8.4,3.4-9.6,7.5c-1.2,4.1,1.2,7.5,5.3,7.5
					C1326.6,1286.7,1330.9,1283.3,1332.1,1279.2z"/>
			</g>
		</g>
	</g>
	<g>
		<g>
			<path class="st30" d="M2035.6,1712.2h0.5c2.7,0,4.9-2.3,4.8-5.2l-7.3-333.8l-21.4-2.6l18.3,336.5
				C2030.6,1709.9,2032.8,1712.2,2035.6,1712.2z"/>
		</g>
		<g>
			<path class="st30" d="M1166.9,1712.2h-0.5c-2.7,0-4.9-2.3-4.8-5.2l7.3-333.8l21.4-2.6L1172,1707
				C1171.9,1709.9,1169.6,1712.2,1166.9,1712.2z"/>
		</g>
		<path class="st30" d="M2061.4,1379.3h-916.7c-7.5,0-13.6-6.1-13.6-13.6v-13.1c0-7.5,6.1-13.6,13.6-13.6h916.7
			c7.5,0,13.6,6.1,13.6,13.6v13.1C2075,1373.3,2068.9,1379.3,2061.4,1379.3z"/>
	</g>
	<path class="st33" d="M944.9,767c-3.5-85.7,68.4-123.8,141.8-123.8s153.4,19,160.3,133c4.5,73.3-34.6,118.4-147.2,118.4
		c-38,0-67.5-6-90.1-16.7l-56.3,50l27.6-69.1C956.7,836.1,946.3,803.9,944.9,767z"/>
	<g>
		<path class="st15" d="M2614.4,1711.8c0,0,2.1-16.1,6.9-25.7c4.8-9.6,35.2-3.5,35.2-3.5s6.1,5.2,7.4,29.6L2614.4,1711.8z"/>
		<path class="st15" d="M2510.6,1711.6c7.2-4.4,3.1-37,3.1-37s-33.4-26.7-37.9-6.3s-31.7,29.6-47.1,32.1c-10.6,1.7-13.9,7.6-15,11.1
			H2510.6z"/>
		<path class="st14" d="M2579.7,1474.6c-1.4,7.5-2.2,13.6-2.4,18c-3.1,60.5-50.9,198.8-59.5,202c-13.2,5-34.1-5.6-45-9.1
			c-4.5-1.4-7.6-6-6.6-10.6c23.7-108.8,32.4-265.6,35.5-358.3c1.6-46.7,9.6-79,9.6-79s116.6-31.1,117.3,8.2
			C2629.3,1280.6,2590.1,1417.1,2579.7,1474.6z"/>
		<path class="st15" d="M2579.7,1474.6l-77.9-158.1c1.6-46.7,9.6-79,9.6-79s116.6-31.1,117.3,8.2
			C2629.3,1280.6,2590.1,1417.1,2579.7,1474.6z"/>
		<path class="st14" d="M2553.7,1245.9l61.6,446.7c0,0,27.1,6.5,48.1,1.3c0,0,18-237.6,16.5-295c-1.5-57.4,13-153.7-3.3-164.3
			C2660.5,1223.9,2553.7,1245.9,2553.7,1245.9z"/>
		<path class="st3" d="M2688.7,1238.4c0.3,4-2.3,7.7-6.2,8.8c-8.6,2.5-18.5,4.2-37.6,8.2c-18,3.7-42.1,7-71.8,7.2
			c-47.2,0.3-65.1-16-65.1-16c-2,0,1.1-9.8,3.9-56.8c0.9-15.9,1.9-36.1,2.5-61.6c0.6-22.9,1-50.2,1-82.5
			c0.1-38.9,60.3-80.7,61.4-80.7l0,0c0,5.6,8.8,15.9,22.4,16.8c16.1,1.1,35.9-7,35.9-16.3c0-0.1,29.2,46.7,39.5,96.5
			C2680,1087.1,2677.8,1086.5,2688.7,1238.4z"/>
		<path class="st3" d="M2576.8,965c0,0-56-0.5-69.5,18.4c-13.5,18.9-43,120.5-27.6,154.4c15.4,33.8,44.3-14,60.3-34.7
			C2556.1,1082.4,2576.8,965,2576.8,965z"/>
		<path class="st26" d="M2576.3,956.5l0,5.8c0,0-1.6,18.1,20.7,20.7c22.3,2.7,38.8-3.4,38.2-17.3c-2-10.8-3.9-21.9-4-30.9
			c-0.1-3.3,0.2-6.9,0.8-10.8l-43.2-0.9l-12.7,2.1L2576.3,956.5z"/>
		<path class="st0" d="M2576.1,925.2l0.2,31.3c4.6,2.1,9.8,3.4,15.6,3.4c19.8,0,32.7-14.6,39.4-25.1c-0.1-3.3,0.2-6.9,0.8-10.8
			l-43.2-0.9L2576.1,925.2z"/>
		<path class="st26" d="M2635.3,917c-5,27-39.8,26.1-54.8,24.4c-4.2-0.5-6.9-1-6.9-1c-4.8-1.3-7.4-8.8-8.7-18.6
			c-2.5-19.5,0.6-48.1,3.9-55.4c5-11,14.3-22.9,49.3-14.3C2653.2,860.6,2641.7,882.4,2635.3,917z"/>
		<path class="st23" d="M2519.6,1040.8c0,0-21.7,47.8-21,62.2c0,0,10.7-0.4,21,2.7C2536.5,1110.7,2519.6,1040.8,2519.6,1040.8z"/>
		<path class="st15" d="M2558.1,840.7c0,0,15.4-1.2,33.6-9.1c14.8-6.4,33.4,0.6,39.4,3.8c-0.2-1-0.6-2.3-1.5-3.6
			c0,0,2.7,1.9,3.1,4.6c0.3,0.2,0.4,0.3,0.3,0.4c0,0,3.1-0.6,5.1,0.3c0,0-1.4-0.2-1.9,0.7c-0.1,0.1-0.1,0.2-0.2,0.2
			c23,11.1,25.2,47.5,17.7,56c-8.9,10.1-22.4,33.1-22.4,33.1s-1.1-5.5,0.5-14.4c1.6-8.9-6.1-8.9-15.8-13s-1.6-15.4-10.1-22.3
			c-8.5-6.9-39.7-2.8-39.3-8.1C2555.1,865.1,2558.1,841.9,2558.1,840.7z"/>
		<path class="st23" d="M2642.4,1130.3c-9.1,36.7-108,55.7-130.5,59.5c0.9-15.9,1.9-36.1,2.5-61.6L2642.4,1130.3z"/>
		<path class="st26" d="M2620.7,1142.3c0.9,0,22-3.1,25.7-5s21-26.4,9.7-32.6c-11.3-6.3-41.6,18.8-41.6,18.8L2620.7,1142.3z"/>
		<path class="st3" d="M2492.7,1149.5c0,0,81.3,4.4,135.9-7.3c0,0,1.4-15.8-15.8-22.8c0,0-85.1-18-105.5-13
			C2486.9,1111.5,2492.7,1149.5,2492.7,1149.5z"/>
		<path class="st3" d="M2679.6,1085.7c-16.9,20.4-39,37-63.3,40.9l0,0c-0.2-0.3-7.4-11.2-6-27.2c0.6-7.4,3.1-15.9,8.9-24.9
			c1.8-2.8,3.4-6,4.8-9.6c13.3-33.9,11.3-99.2,11.3-99.2s56.4,5.9,74,31C2720,1012,2706.2,1053.5,2679.6,1085.7z"/>
		<path class="st0" d="M2580.5,941.4c-4.2-0.5-6.9-1-6.9-1c-4.8-1.3-7.4-8.8-8.7-18.6c8.9,2.2,13,9.1,14.8,12.1
			C2580.4,935.1,2580.6,938.1,2580.5,941.4z"/>
		<path class="st26" d="M2557.7,956.6c0,0-19.5-32.2-4.3-33.6c15.2-1.4,21.2,8.9,23.4,12.6s-0.6,20.8-0.6,20.8L2557.7,956.6z"/>
		<path class="st3" d="M2632,1098.3c-0.6,4.1-1.8,7.8-3.3,11.2c-4.8,10.6-12.4,17.1-12.4,17.1l0,0c-50.6-22.8-60.8-101.3-62.6-144.4
			c-0.7-17.3,0-28.9,0-28.9c22.8-7.6,29.2,5.6,29.2,5.6s27,64.1,40.9,106C2629.2,1080.8,2632.7,1093.6,2632,1098.3z"/>
		<path class="st23" d="M2679.6,1085.7c-16.9,20.4-39,37-63.3,40.9l0,0c-50.6-22.8-60.8-101.3-62.6-144.4c0,0,23.9,86.9,56.5,117.2
			c5.9,5.5,12.1,9.1,18.4,10.1c0,0,41.1-11.6,49.7-22.6C2679,1086.1,2679.4,1085.8,2679.6,1085.7z"/>
	</g>
	<g>
		<g>
			<polygon class="st22" points="1757.8,1339.1 1600.7,1339.1 1553.4,1221.5 1710.3,1221.5 			"/>
			<polygon class="st22" points="1598.8,1334.5 1806.4,1334.5 1806.4,1339.1 1600.7,1339.1 			"/>
		</g>
		<path class="st27" d="M1640.3,1280.3c-1.2-4.1,1.2-7.5,5.3-7.5c4.1,0,8.4,3.4,9.6,7.5s-1.2,7.5-5.3,7.5
			C1645.8,1287.8,1641.5,1284.4,1640.3,1280.3z"/>
	</g>
	<path class="st24" d="M3033,1709.2v1c0,1.6-1.5,2.9-3.3,2.9H146.2c-1.8,0-3.3-1.3-3.3-2.9v-1c0-1.6,1.5-2.9,3.3-2.9h2883.5
		C3031.5,1706.3,3033,1707.6,3033,1709.2z"/>
</g>
</svg>
